HIERARCHY
ROOT Bone
{
	OFFSET -0.030867 -4.437881 3.253119
	CHANNELS 6 Xposition Yposition Zposition Yrotation Xrotation Zrotation
	JOINT TailE
	{
		OFFSET 0.000000 0.080156 -1.935160
		CHANNELS 3 Yrotation Xrotation Zrotation
		JOINT TailD
		{
			OFFSET 0.000000 2.358044 0.291682
			CHANNELS 3 Yrotation Xrotation Zrotation
			JOINT TailC
			{
				OFFSET -0.000000 1.333671 1.916938
				CHANNELS 3 Yrotation Xrotation Zrotation
				JOINT TailB
				{
					OFFSET -0.000000 -1.255148 3.134412
					CHANNELS 3 Yrotation Xrotation Zrotation
					JOINT TailA
					{
						OFFSET 0.000000 -2.140733 1.650507
						CHANNELS 3 Yrotation Xrotation Zrotation
						JOINT Sting
						{
							OFFSET 0.000000 -1.968932 -0.918733
							CHANNELS 3 Yrotation Xrotation Zrotation
							End Site
							{
								OFFSET -0.000000 0.251272 -2.461170
							}
						}
					}
				}
			}
		}
	}
	JOINT BodyA
	{
		OFFSET 0.000000 0.080156 -1.935160
		CHANNELS 3 Yrotation Xrotation Zrotation
		JOINT BodyB
		{
			OFFSET -0.170525 -1.291478 -0.222229
			CHANNELS 3 Yrotation Xrotation Zrotation
			JOINT BodyC
			{
				OFFSET 0.007548 -1.372383 0.222229
				CHANNELS 3 Yrotation Xrotation Zrotation
				JOINT BodyD
				{
					OFFSET 0.069461 -1.290529 -0.000000
					CHANNELS 3 Yrotation Xrotation Zrotation
					JOINT Head
					{
						OFFSET -0.010688 -1.207692 -0.000000
						CHANNELS 3 Yrotation Xrotation Zrotation
						End Site
						{
							OFFSET -0.040078 -1.202348 0.000000
						}
					}
					JOINT ClawLA
					{
						OFFSET -0.010688 -1.207692 -0.000000
						CHANNELS 3 Yrotation Xrotation Zrotation
						JOINT ClawLB
						{
							OFFSET 6.819127 -3.131665 -0.000000
							CHANNELS 3 Yrotation Xrotation Zrotation
							JOINT Claw
							{
								OFFSET 2.824883 -3.240305 0.000000
								CHANNELS 3 Yrotation Xrotation Zrotation
								End Site
								{
									OFFSET 2.243288 -2.631018 0.000000
								}
							}
						}
					}
					JOINT ClawRA
					{
						OFFSET -0.010688 -1.207692 -0.000000
						CHANNELS 3 Yrotation Xrotation Zrotation
						JOINT ClawRB
						{
							OFFSET -6.379529 -3.154838 0.000000
							CHANNELS 3 Yrotation Xrotation Zrotation
							JOINT ClawR
							{
								OFFSET -2.858049 -3.223614 0.000000
								CHANNELS 3 Yrotation Xrotation Zrotation
								End Site
								{
									OFFSET -2.326319 -2.824816 0.000000
								}
							}
						}
					}
				}
				JOINT LegL1A
				{
					OFFSET 0.069461 -1.290529 -0.000000
					CHANNELS 3 Yrotation Xrotation Zrotation
					JOINT LegL1B
					{
						OFFSET 3.086028 -0.641253 -0.000000
						CHANNELS 3 Yrotation Xrotation Zrotation
						JOINT LegL1C
						{
							OFFSET 4.709358 -0.277021 -0.000000
							CHANNELS 3 Yrotation Xrotation Zrotation
							JOINT LegL1D
							{
								OFFSET 2.724041 1.939148 -0.000000
								CHANNELS 3 Yrotation Xrotation Zrotation
								JOINT LegL1E
								{
									OFFSET 2.008403 1.708297 0.000000
									CHANNELS 3 Yrotation Xrotation Zrotation
									End Site
									{
										OFFSET 1.269680 -0.438617 0.000000
									}
								}
							}
						}
					}
				}
				JOINT LegR1A
				{
					OFFSET 0.069461 -1.290529 -0.000000
					CHANNELS 3 Yrotation Xrotation Zrotation
					JOINT LegR1B
					{
						OFFSET -3.083751 -0.656827 0.000000
						CHANNELS 3 Yrotation Xrotation Zrotation
						JOINT LegR1C
						{
							OFFSET -4.678308 -0.396769 0.000000
							CHANNELS 3 Yrotation Xrotation Zrotation
							JOINT LegR1D
							{
								OFFSET -2.462370 1.923727 -0.000000
								CHANNELS 3 Yrotation Xrotation Zrotation
								JOINT LegR1E
								{
									OFFSET -2.077625 1.789066 0.000000
									CHANNELS 3 Yrotation Xrotation Zrotation
									End Site
									{
										OFFSET -1.385083 -0.403983 0.000000
									}
								}
							}
						}
					}
				}
			}
			JOINT LegL2A
			{
				OFFSET 0.007548 -1.372383 0.222229
				CHANNELS 3 Yrotation Xrotation Zrotation
				JOINT LegL2B
				{
					OFFSET 3.546783 -0.826963 0.000000
					CHANNELS 3 Yrotation Xrotation Zrotation
					JOINT LegL2C
					{
						OFFSET 4.852750 1.154237 -0.000001
						CHANNELS 3 Yrotation Xrotation Zrotation
						JOINT LegL2D
						{
							OFFSET 1.597293 2.641278 0.000000
							CHANNELS 3 Yrotation Xrotation Zrotation
							JOINT LegL2E
							{
								OFFSET 1.456213 1.970425 0.000000
								CHANNELS 3 Yrotation Xrotation Zrotation
								End Site
								{
									OFFSET 1.442703 -0.080150 0.000000
								}
							}
						}
					}
				}
			}
			JOINT LegR2A
			{
				OFFSET 0.007548 -1.372383 0.222229
				CHANNELS 3 Yrotation Xrotation Zrotation
				JOINT LegR2B
				{
					OFFSET -3.098261 -0.816307 -0.000001
					CHANNELS 3 Yrotation Xrotation Zrotation
					JOINT LegR2C
					{
						OFFSET -4.754818 1.178645 0.000000
						CHANNELS 3 Yrotation Xrotation Zrotation
						JOINT LegR2D
						{
							OFFSET -1.865813 2.423635 -0.000000
							CHANNELS 3 Yrotation Xrotation Zrotation
							JOINT LegR2E
							{
								OFFSET -1.500345 2.154342 0.000000
								CHANNELS 3 Yrotation Xrotation Zrotation
								End Site
								{
									OFFSET -1.442639 -0.134646 -0.000000
								}
							}
						}
					}
				}
			}
		}
		JOINT LegR3A
		{
			OFFSET -0.170525 -1.291478 -0.222229
			CHANNELS 3 Yrotation Xrotation Zrotation
			JOINT LegR3B
			{
				OFFSET -3.032154 -1.108673 0.000000
				CHANNELS 3 Yrotation Xrotation Zrotation
				JOINT LegR3C
				{
					OFFSET -4.180900 2.310848 0.000000
					CHANNELS 3 Yrotation Xrotation Zrotation
					JOINT LegR3D
					{
						OFFSET -1.175460 2.871864 0.000000
						CHANNELS 3 Yrotation Xrotation Zrotation
						JOINT LegR3E
						{
							OFFSET -1.001813 2.244061 -0.000000
							CHANNELS 3 Yrotation Xrotation Zrotation
							End Site
							{
								OFFSET -1.162103 0.440798 0.000000
							}
						}
					}
				}
			}
		}
		JOINT LegL3A
		{
			OFFSET -0.170525 -1.291478 -0.222229
			CHANNELS 3 Yrotation Xrotation Zrotation
			JOINT LegL3B
			{
				OFFSET 3.605357 -1.228765 0.000000
				CHANNELS 3 Yrotation Xrotation Zrotation
				JOINT LegL3C
				{
					OFFSET 4.167743 2.689717 0.000000
					CHANNELS 3 Yrotation Xrotation Zrotation
					JOINT LegL3D
					{
						OFFSET 1.024774 2.575782 0.000000
						CHANNELS 3 Yrotation Xrotation Zrotation
						JOINT LegL3E
						{
							OFFSET 0.692414 2.631176 0.000000
							CHANNELS 3 Yrotation Xrotation Zrotation
							End Site
							{
								OFFSET 1.384830 0.138483 0.000000
							}
						}
					}
				}
			}
		}
	}
	JOINT LegR4A
	{
		OFFSET 0.000000 0.080156 -1.935160
		CHANNELS 3 Yrotation Xrotation Zrotation
		JOINT LegR4B
		{
			OFFSET -3.312424 -0.975029 0.000001
			CHANNELS 3 Yrotation Xrotation Zrotation
			JOINT LegR4C
			{
				OFFSET -3.046576 3.406626 -0.000000
				CHANNELS 3 Yrotation Xrotation Zrotation
				JOINT LegR4D
				{
					OFFSET -0.166177 3.240449 0.000000
					CHANNELS 3 Yrotation Xrotation Zrotation
					JOINT LegR4E
					{
						OFFSET 0.055392 2.409564 0.000000
						CHANNELS 3 Yrotation Xrotation Zrotation
						End Site
						{
							OFFSET -1.107846 0.747796 0.000000
						}
					}
				}
			}
		}
	}
	JOINT LegL4A
	{
		OFFSET 0.000000 0.080156 -1.935160
		CHANNELS 3 Yrotation Xrotation Zrotation
		JOINT LegL4B
		{
			OFFSET 3.029229 -0.993715 0.000000
			CHANNELS 3 Yrotation Xrotation Zrotation
			JOINT LegL4C
			{
				OFFSET 3.157450 3.654308 0.000000
				CHANNELS 3 Yrotation Xrotation Zrotation
				JOINT LegL4D
				{
					OFFSET 0.192332 3.093340 0.000000
					CHANNELS 3 Yrotation Xrotation Zrotation
					JOINT LegL4E
					{
						OFFSET 0.000000 2.724704 0.000000
						CHANNELS 3 Yrotation Xrotation Zrotation
						End Site
						{
							OFFSET 0.993715 0.512885 0.000000
						}
					}
				}
			}
		}
	}
}
MOTION
Frames: 4
Frame Time: 0.041667
-0.030867 -4.437881 6.543655 -7.725666 -0.000000 0.000000 -1.606911 18.533969 -11.371709 -4.883426 -5.836698 2.452646 18.546909 -18.916284 -7.072874 21.473350 10.696442 -9.740301 -32.377627 -3.327774 13.308897 2.902608 13.919242 3.970412 0.000001 -0.000001 0.000001 -0.020236 -4.129713 0.561224 -0.105255 -9.375695 1.283493 -0.190242 12.548422 -1.730196 -0.000001 -0.000000 0.000000 15.239612 -7.466390 -4.816675 -7.042135 7.716297 -74.594115 -0.008826 0.094226 4.263907 -8.795731 -11.520132 -3.821532 14.417805 10.496491 61.107968 -3.832232 5.499005 7.240191 -4.589406 0.000000 -0.000001 13.648467 -63.405268 -13.419229 75.085765 3.882274 45.360700 6.189652 10.649426 -22.067315 -47.137492 33.433930 3.743324 17.812671 -0.214421 2.507515 15.729500 -4.835614 -8.318142 -83.841658 -21.787351 26.999886 6.478496 -0.465577 -13.313723 -39.485962 39.050565 -51.059544 -12.070517 -0.150573 -0.523582 -11.960708 1.906150 4.251375 89.877298 -35.655456 -55.115976 23.435972 7.604996 18.261218 -2.297478 -36.077981 66.790234 7.423844 0.000001 0.000003 15.487266 21.853096 2.968965 -95.542455 -67.658044 74.296633 -18.624935 -16.293903 17.246977 37.427972 56.158263 -16.769528 7.423843 -0.000000 0.000004 29.945971 -4.830183 2.552252 -62.287316 -57.748519 34.802474 3.908942 15.488499 -17.925729 3.321782 28.387846 -33.019129 -4.589405 0.000000 -0.000001 0.325752 3.949816 -4.519271 -16.525407 -55.104634 30.567480 -28.537468 -28.964240 16.491046 55.675870 30.808955 56.760679 38.232004 0.000197 0.000071 -11.557464 1.836523 7.157644 39.872886 -43.842691 -42.932899 60.680569 9.092268 -17.438472 -11.948889 10.191677 -32.833805 -4.589406 -0.000000 0.000004 6.020889 -15.370613 -13.657677 -18.081360 -47.150070 25.522146 -5.832224 9.811923 16.323326 24.252496 14.118338 81.075336 
-0.030867 -4.437881 6.543655 -7.725666 -0.000000 0.000000 -1.606911 18.533969 -11.371709 -4.883426 -5.836698 2.452646 18.546909 -18.916284 -7.072874 21.473350 10.696442 -9.740301 -32.377627 -3.327774 13.308897 2.902608 13.919242 3.970412 0.000001 -0.000001 0.000001 -0.020236 -4.129713 0.561224 -0.105255 -9.375695 1.283493 -0.190242 12.548422 -1.730196 -0.000001 -0.000000 0.000000 15.166462 -7.530995 -4.320211 -6.985610 7.709748 -77.133231 -0.010410 0.197607 8.934652 -8.479703 -11.932324 -5.255234 14.402412 10.651587 63.906405 -4.064532 4.974897 1.390408 -4.589406 0.000000 -0.000001 20.831681 -63.127163 -20.582399 75.085765 3.882277 45.360700 6.189652 10.649427 -22.067313 -47.137488 33.433933 3.743322 20.297060 -0.332939 3.098759 16.597664 -4.088357 -10.955790 -83.841658 -21.787349 26.999886 6.478499 -0.465577 -13.313724 -39.485959 39.050565 -51.059547 -13.861301 -0.196706 -0.645666 -12.004073 2.365114 5.268680 89.877298 -35.655452 -55.115972 23.435969 7.604993 18.261221 -2.297475 -36.077974 66.790234 7.423844 0.000001 0.000003 15.961741 21.445752 4.557515 -95.542455 -67.658044 74.296633 -18.624939 -16.293903 17.246976 37.427968 56.158263 -16.769525 7.423843 -0.000000 0.000004 30.118385 -3.473995 0.171508 -62.287316 -57.748525 34.802478 3.908947 15.488499 -17.925731 3.321781 28.387844 -33.019125 -4.589405 0.000000 -0.000001 0.207903 3.566927 -6.317013 -16.525402 -55.104631 30.567480 -37.286508 -25.937293 20.661693 51.675053 30.872342 56.987543 40.476490 0.000159 0.000060 -11.487582 1.420570 9.616091 42.976045 -39.114728 -48.093698 75.322145 19.057696 -16.323674 -5.616652 12.167576 -34.154173 -4.589406 -0.000000 0.000004 6.908985 -15.697925 -16.973205 -28.804451 -41.531078 37.383637 -5.832224 9.811922 16.323327 24.252497 14.118335 81.075336 
-0.030867 -4.437881 6.543655 -7.725666 -0.000000 0.000000 -1.606911 18.533969 -11.371709 -4.883426 -5.836698 2.452646 18.546909 -18.916284 -7.072874 21.473350 10.696442 -9.740301 -32.377627 -3.327774 13.308897 2.902608 13.919242 3.970412 0.000001 -0.000001 0.000001 -0.020236 -4.129713 0.561224 -0.105255 -9.375695 1.283493 -0.190242 12.548422 -1.730196 -0.000001 -0.000000 0.000000 15.131613 -7.561375 -4.085004 -6.958812 7.707473 -78.334565 -0.008223 0.246284 11.141431 -8.326246 -12.124749 -5.935728 14.397853 10.725010 65.230697 -4.155269 4.720740 -1.366740 -4.589406 0.000000 -0.000001 24.153371 -62.856810 -23.894619 75.085765 3.882272 45.360700 6.189652 10.649428 -22.067313 -47.137488 33.433930 3.743325 21.472335 -0.398075 3.376434 16.995667 -3.721236 -12.199036 -83.841658 -21.787349 26.999883 6.478498 -0.465575 -13.313726 -39.485959 39.050565 -51.059544 -14.709159 -0.219937 -0.702924 -12.021767 2.582709 5.750477 89.877298 -35.655456 -55.115972 23.435972 7.604994 18.261218 -2.297478 -36.077974 66.790234 7.423844 0.000001 0.000003 16.181666 21.248667 5.306923 -95.542448 -67.658044 74.296639 -18.624941 -16.293901 17.246977 37.427968 56.158263 -16.769523 7.423843 -0.000000 0.000004 30.180168 -2.830250 -0.952659 -62.287316 -57.748525 34.802474 3.908945 15.488499 -17.925731 3.321784 28.387847 -33.019129 -4.589405 0.000000 -0.000001 0.156341 3.384465 -7.167670 -16.525405 -55.104634 30.567480 -41.219529 -24.344211 22.389657 49.785276 30.907771 57.092960 41.538817 0.000016 0.000007 -11.460752 1.222959 10.779343 44.179296 -36.825887 -50.296751 82.251132 23.280244 -14.903244 -2.643286 13.145714 -34.696517 -4.589406 -0.000000 0.000004 7.335837 -15.835073 -18.545116 -32.914012 -38.449966 42.047249 -5.832223 9.811922 16.323327 24.252497 14.118339 81.075336 
-0.030867 -4.437881 6.543655 -7.725666 -0.000000 0.000000 -1.606911 18.533969 -11.371709 -4.890144 -5.875047 2.462134 18.538095 -19.010672 -7.082832 21.575524 10.986846 -9.573769 -32.584838 -3.754520 13.337502 2.980820 14.263796 3.976713 0.000001 -0.000001 0.000001 -0.020236 -4.129713 0.561224 -0.104199 -9.329104 1.277000 -0.190242 12.548419 -1.730197 -0.000001 -0.000000 -0.000000 15.167316 -7.530227 -4.326123 -6.968914 7.708347 -77.879647 -0.008012 0.249491 11.287281 -8.342402 -12.104713 -5.864551 14.398182 10.718620 65.115929 -4.139602 4.767488 -0.862954 -4.589405 -0.000000 -0.000001 24.084900 -62.816348 -24.314428 75.085765 3.882278 45.360700 6.343133 10.679938 -21.374278 -45.713660 34.807706 5.469651 21.230453 -0.387127 3.331506 17.081437 -3.549160 -12.049349 -83.841658 -21.787351 26.999885 6.618459 -0.604584 -13.621313 -39.486471 38.897408 -51.138279 -14.765196 -0.221506 -0.706695 -11.037220 2.622959 5.847677 89.877298 -35.655456 -55.115972 23.155374 7.566251 18.870197 -2.297476 -36.077981 66.790234 7.775418 -0.000064 0.025575 15.825623 21.498647 5.138605 -95.542462 -67.658044 74.296639 -18.337265 -16.293442 16.811607 37.338424 56.454601 -17.213270 7.566573 0.084944 0.134039 29.555929 -2.867383 -1.028058 -62.359176 -57.735767 34.700397 3.908946 15.488502 -17.925729 2.717791 28.513280 -33.660262 -4.586238 -0.089780 -0.087506 0.658762 3.818730 -6.771538 -16.958274 -55.739664 30.520304 -41.509898 -23.671969 22.383537 49.660468 30.910257 57.099876 41.516359 -0.017672 -0.062027 -10.717066 1.176887 10.874493 44.253489 -36.673704 -50.437768 82.713775 23.545112 -14.789422 -2.447193 13.211345 -34.730402 -4.915548 -0.000110 0.000008 7.505004 -15.437930 -18.435519 -33.495255 -38.529910 42.512798 -5.832226 9.811921 16.323329 24.252497 14.118337 81.075336 
